<?xml version="1.0" ?><svg data-name="Layer 1" id="Layer_1" viewBox="0 0 64 64" xmlns="http://www.w3.org/2000/svg"><defs><style>.cls-1{fill:#4fbe9f;}.cls-2{fill:#09816c;}</style></defs><title/><path class="cls-1" d="M45.7,51.35,44,47.57A1.17,1.17,0,0,0,42.36,47a6,6,0,0,1-3.06.81c-2.71,0-3.92-1.64-3.92-4.06V31.24A1.21,1.21,0,0,1,36.59,30h6.33a1.21,1.21,0,0,0,1.21-1.21v-5.9a1.21,1.21,0,0,0-1.21-1.21l-10.73,0a1,1,0,0,1-1-1h0a1,1,0,0,1,1-1h2.17a1,1,0,0,0,1-1V9.21A1.21,1.21,0,0,0,34.17,8H29.78A1.28,1.28,0,0,0,28.6,9a18.58,18.58,0,0,1-9.72,12.49,1.22,1.22,0,0,0-.68,1.08v6.28A1.2,1.2,0,0,0,19.4,30h4a1.21,1.21,0,0,1,1.21,1.21V45.83C24.63,48,26.69,56,37.23,56a10.85,10.85,0,0,0,8.28-3.38A1.18,1.18,0,0,0,45.7,51.35Z"/><path class="cls-2" d="M44,47.57A1.17,1.17,0,0,0,42.36,47a6,6,0,0,1-3.06.81c-2.71,0-3.92-1.64-3.92-4.06V31.24A1.21,1.21,0,0,1,36.59,30H23.42a1.21,1.21,0,0,1,1.21,1.21V45.83C24.63,48,26.69,56,37.23,56a10.85,10.85,0,0,0,8.28-3.38,1.18,1.18,0,0,0,.19-1.27Z"/></svg>